# xmcd
#
# Track frame offsets:
#	150
#	9832
#	25987
#	42675
#	58940
#	86352
#	118770
#	130010
#	153345
#	186610
#	216667
#	241942
#	268995
#	290907
#	322682
#
# Disc length: 4419 seconds
#
# Revision: 1
# Processed by: cddbd v1.5.1PL2 Copyright (c) Steve Scherf et al.
# Submitted via: EasyCDDAExtractor 9.0.0.1
#
DISCID=e211410f
DTITLE=Pretty Maids - Bottom Line 02-03-95 Nagoya
DYEAR=1995
DGENRE=Hard Rock
TTITLE0=Overture
TTITLE1=Psycho Time Bomb
TTITLE2=Lethal Heroes
TTITLE3=Rock The House
TTITLE4=Yellow Rain
TTITLE5=Sin-Decade
TTITLE6=Lazy
TTITLE7=Savage Heart
TTITLE8=Please Don't Leave Me (Thin Lizzy's Cover)
TTITLE9=Love Games
TTITLE10=Future World
TTITLE11=Back To Back
TTITLE12=Rosalie (Thin Lizzy's Cover)
TTITLE13=Red Hot and Heavy
TTITLE14=Outro
EXTD=
EXTT0=
EXTT1=
EXTT2=
EXTT3=
EXTT4=
EXTT5=
EXTT6=
EXTT7=
EXTT8=
EXTT9=
EXTT10=
EXTT11=
EXTT12=
EXTT13=
EXTT14=
PLAYORDER=
